# xmcd
# 
# Track frame offsets:
#     150
#     17671
#     49372
#     71848
#     87047
#     104218
#     125909
#     145090
#     158992
#     179150
#     202498
#     220379
#     240839
#     292675
# 
# Disc length: 4356
# 
# Revision: 1
# Processed by: cddbd v1.5.2PL0 Copyright (c) Steve Scherf et al.
# Submitted via: fre:ac v1.0.31
# 
DISCID=df11020e
DTITLE=Savoy Brown - Too Much Of A Good Thing
DYEAR=2009
DGENRE=Blues
TTITLE0=Going Down to Mobile
TTITLE1=Little Wheel
TTITLE2=Keep on Rollin'
TTITLE3=That's All I Want Baby
TTITLE4=The Blues Keep Me Holding On
TTITLE5=I Don't Remember You
TTITLE6=Flat Out
TTITLE7=When it Rains
TTITLE8=Yesterday's Blues
TTITLE9=Monday Morning Blues
TTITLE10=Feel Like Crying
TTITLE11=She's Leaving
TTITLE12=Where has Your Heart Gone
TTITLE13=Too Much of a Good Thing (Live) (Previously Unreleased)
EXTD=
EXTT0=
EXTT1=
EXTT2=
EXTT3=
EXTT4=
EXTT5=
EXTT6=
EXTT7=
EXTT8=
EXTT9=
EXTT10=
EXTT11=
EXTT12=
EXTT13=
PLAYORDER=
